<?xml version="1.0" encoding="utf-8"?>
<!-- Generator: Adobe Illustrator 18.1.1, SVG Export Plug-In . SVG Version: 6.00 Build 0)  -->
<svg version="1.1" id="Layer_1" xmlns="http://www.w3.org/2000/svg" xmlns:xlink="http://www.w3.org/1999/xlink" x="0px" y="0px"
	 viewBox="0 0 120 120" enable-background="new 0 0 120 120" xml:space="preserve">
<g>
	
		<rect x="28.2" y="28.2" transform="matrix(0.7071 0.7071 -0.7071 0.7071 60 -24.8528)" fill="#FFFFFF" width="63.6" height="63.6"/>
	<path fill="#1B1D1E" d="M71.3,48.7c-0.4,0-0.8,0-1.2,0.1c-2.4,0.2-4.6,1.2-6.3,2.7c-0.7,0.6-1.4,1.4-1.9,2.2c0,0,0,0,0,0
		c0,0-0.1,0.1-0.2,0.3c1.3,0.4,2.5,1.2,3.2,2.4l0.1-0.1l0.4-0.5l0.3-0.4c0.5-0.6,1-1.1,1.7-1.5c1.2-0.8,2.6-1.2,4.1-1.2
		c4.1,0,7.4,3.3,7.4,7.4c0,4.1-3.3,7.4-7.4,7.4c-1.5,0-2.9-0.5-4.1-1.2c-0.6-0.4-1.2-1-1.7-1.6l-0.2-0.3L65,63.7l-0.2-0.3
		c-0.8,1.1-2,1.9-3.3,2.3l0.4,0.6l0.1,0.1c0.5,0.8,1.2,1.5,1.9,2.1c1.7,1.5,3.9,2.5,6.3,2.7c0.4,0,0.8,0.1,1.2,0.1
		c6.3,0,11.3-5.1,11.3-11.3C82.7,53.7,77.6,48.7,71.3,48.7"/>
	<path fill="#1B1D1E" d="M55.1,63.6L55.1,63.6L55,63.8l-0.6,0.8c-0.4,0.5-0.8,0.9-1.3,1.2c-1.2,1-2.8,1.5-4.5,1.5
		c-4.1,0-7.4-3.3-7.4-7.4c0-4.1,3.3-7.4,7.4-7.4c1.7,0,3.2,0.6,4.5,1.5c0.9-1.1,2-1.9,3.2-2.5c-1.8-1.6-4-2.7-6.5-2.9
		c-0.4,0-0.8-0.1-1.2-0.1c-6.3,0-11.3,5.1-11.3,11.3c0,6.3,5.1,11.3,11.3,11.3c0.4,0,0.8,0,1.2-0.1c2.5-0.3,4.8-1.3,6.5-2.9
		c0.6-0.6,1.2-1.2,1.6-1.9c0.1-0.1,0.1-0.2,0.2-0.3c0.1-0.1,0.2-0.3,0.3-0.4C57.1,65.5,55.9,64.7,55.1,63.6"/>
	<path fill="#F05023" d="M64,59.5c0,2.1-1.7,3.8-3.8,3.8c-2.1,0-3.8-1.7-3.8-3.8c0-2.1,1.7-3.8,3.8-3.8C62.2,55.6,64,57.4,64,59.5"
		/>
</g>
</svg>
